<?xml version="1.0" encoding="UTF-8"?>
<!DOCTYPE svg  PUBLIC '-//W3C//DTD SVG 1.1//EN'  'http://www.w3.org/Graphics/SVG/1.1/DTD/svg11.dtd'>
<svg enable-background="new 0 0 570 200" version="1.1" viewBox="0 0 570 200" xmlns="http://www.w3.org/2000/svg">
 <style type="text/css">.st0{fill:#ABB1AA;} .st1{fill:#FFFFFF;} .st2{fill:#FFFFFF;stroke:#000000;stroke-width:14;stroke-miterlimit:10;}</style>
 <path class="st0" d="m560 197.5h-550c-4.2 0-7.5-3.4-7.5-7.5v-180c0-4.2 3.4-7.5 7.5-7.5h550c4.2 0 7.5 3.4 7.5 7.5v180c0 4.1-3.4 7.5-7.5 7.5z"/>
 <path d="M560,0H10C4.5,0,0,4.5,0,10v180c0,5.5,4.5,10,10,10h550c5.5,0,10-4.5,10-10V10C570,4.5,565.5,0,560,0z M10,6h550 c2.2,0,4,1.8,4,4v130H6V10C6,7.8,7.8,6,10,6z"/>
 <circle class="st0" cx="98" cy="93" r="86.5"/>
 <path class="st1" d="m290.8 167.2c3.3-1.6 5-3.9 5-6.7 0-2.9-1.2-5.2-3.5-6.7-2.3-1.6-5.5-2.4-9.6-2.4-2.1 0-5.9 0.1-11.2 0.3v35.5h12.1c4.3 0 7.8-0.9 10.5-2.8s4.1-4.5 4.1-7.7c-0.1-4.8-2.5-7.9-7.4-9.5zm-12.3-10.4c1.6-0.1 2.9-0.1 4-0.1 4.1 0 6.2 1.4 6.2 4.1 0 3.1-2.3 4.6-6.8 4.6-1.2 0-2.3 0-3.4-0.1v-8.5zm10.2 23.9c-1.4 1-3.7 1.4-6.8 1.4-0.9 0-2-0.1-3.4-0.2v-11.7c1.7 0 2.8-0.1 3.5-0.1 3.3 0 5.6 0.5 6.9 1.4s2 2.4 2 4.4c-0.1 2.3-0.8 3.9-2.2 4.8z"/>
 <polygon class="st1" points="324.1 151.8 314.7 166.9 305.4 151.8 297.9 151.8 311.2 172.7 311.2 187.3 318.2 187.3 318.2 172.7 331.5 151.8"/>
 <circle class="st1" cx="437" cy="70.6" r="50"/>
 <path d="m437 25.6c24.8 0 45 20.2 45 45s-20.2 45-45 45-45-20.2-45-45 20.2-45 45-45m0-10c-30.4 0-55 24.6-55 55s24.6 55 55 55 55-24.6 55-55-24.6-55-55-55z"/>
 <rect x="416.4" y="74.3" width="41.2" height="10.3"/>
 <rect x="416.4" y="55.4" width="41.2" height="10.3"/>
 <polygon class="st1" points="426.4 172.9 407.9 151.6 404.5 151.6 404.5 186.9 411.2 186.9 411.2 165 430.2 187.3 433.1 187.3 433.1 151.6 426.4 151.6"/>
 <path class="st1" d="m464.5 155.8c-3.3-3-7.9-4.5-13.6-4.5-1.4 0-4.9 0.1-10.5 0.3v35.3h8.7c13.6 0 20.4-6.3 20.4-19 0-5.1-1.7-9-5-12.1zm-5.2 22c-2 2.3-4.7 3.4-8.3 3.4-1.3 0-2.5 0-3.6-0.1v-24.1c1.4-0.1 2.4-0.2 3.2-0.2 7.8 0 11.7 3.8 11.7 11.3 0 4.2-1 7.4-3 9.7z"/>
 <circle class="st1" cx="300" cy="70.6" r="50"/>
 <path d="m300 25.6c24.8 0 45 20.2 45 45s-20.2 45-45 45-45-20.2-45-45 20.2-45 45-45m0-10c-30.4 0-55 24.6-55 55s24.6 55 55 55 55-24.6 55-55-24.6-55-55-55z"/>
 <circle cx="300" cy="43" r="7.9"/>
 <path d="m313.2 57.9c0-0.8 0.1-2.3-1.1-3.5-1.1-1.1-2.7-1.1-3.5-1.1h-17.3c-0.8 0-2.3-0.1-3.5 1.1-1.1 1.1-1.1 2.7-1.1 3.5v21.9h5v26.4h16.4v-26.4h5c0.1 0 0.1-18.9 0.1-21.9z"/>
 <circle class="st2" cx="98" cy="93" r="68.5"/>
 <path d="m78.8 106.3c-6.9 0-10.1-5.7-10.1-13.3s2.7-13.3 10.1-13.3c2 0 6 1.1 8.3 6.1l10-5.2c-4.2-7.7-11.5-10.8-19.9-10.8-12.2 0-22 8.6-22 23.3 0 14.9 9.2 23.3 22.4 23.3 8.5 0 15.7-4.7 19.7-11.7l-9.3-4.7c-2 4.8-5.2 6.3-9.2 6.3z"/>
 <path d="m131.4 99.8c-2.1 5-5.2 6.5-9.2 6.5-6.9 0-10.1-5.7-10.1-13.3s2.7-13.3 10.1-13.3c2 0 6 1.1 8.3 6.1l10-5.2c-4.2-7.7-11.5-10.8-19.9-10.8-12.2 0-22 8.6-22 23.3 0 14.9 9.2 23.3 22.4 23.3 8.5 0 15.7-4.7 19.7-11.7l-9.3-4.9z"/>
</svg>
